Coordinates
version=1
nRows=5
nColumns=40
inDegrees=yes

Units are S.I. units (second, meters, Newtons, ...)
If the header above contains a line with 'inDegrees', this indicates whether rotational values are in degrees (yes) or radians (no).

endheader
time	pelvis_tilt	pelvis_list	pelvis_rotation	pelvis_tx	pelvis_ty	pelvis_tz	hip_flexion_r	hip_adduction_r	hip_rotation_r	knee_angle_r	knee_angle_r_beta	ankle_angle_r	subtalar_angle_r	mtp_angle_r	hip_flexion_l	hip_adduction_l	hip_rotation_l	knee_angle_l	knee_angle_l_beta	ankle_angle_l	subtalar_angle_l	mtp_angle_l	lumbar_extension	lumbar_bending	lumbar_rotation	arm_flex_r	arm_add_r	arm_rot_r	elbow_flex_r	pro_sup_r	wrist_flex_r	wrist_dev_r	arm_flex_l	arm_add_l	arm_rot_l	elbow_flex_l	pro_sup_l	wrist_flex_l	wrist_dev_l
      4.09500000	     -0.82346219	     -0.02938390	     -1.69220448	     -0.26532716	      1.37934384	     -0.82030651	     -2.31591839	     -9.37272721	     -5.91037509	      9.89873257	      0.17276548	    -16.49516711	      0.00000000	      0.00000000	      0.43792147	    -11.56810369	     -7.66946126	     10.67442852	      0.18630392	    -28.35745512	      0.00000000	      0.00000000	    -10.25060688	     -5.66404834	     -2.68305916	    -47.63860774	    -41.39935787	      6.17772107	    113.08461479	     87.61736951	      0.00000000	      0.00000000	    -19.76538877	    -61.89550941	     51.41348826	    103.04959773	     88.19048447	      0.00000000	      0.00000000
      4.10000000	     -0.95179617	     -0.21358943	     -1.72440190	     -0.26738171	      1.37075382	     -0.82012897	     -1.85393691	     -9.26310905	     -5.78617305	     10.01934320	      0.17487053	    -15.66046193	      0.00000000	      0.00000000	      0.85600804	    -11.89838929	     -7.72337849	     10.93535182	      0.19085789	    -28.24062166	      0.00000000	      0.00000000	    -10.47830403	     -5.48329113	     -2.68701599	    -47.63546033	    -41.43755430	      6.14665223	    112.95419623	     87.48417213	      0.00000000	      0.00000000	    -19.39760251	    -61.90192946	     51.76373548	    103.02259946	     88.25038038	      0.00000000	      0.00000000
      4.10500000	     -1.07816851	     -0.30340490	     -1.89045738	     -0.26881492	      1.36170686	     -0.81964015	     -1.38815279	     -9.23973480	     -5.59211727	     10.13696726	      0.17692345	    -14.93800994	      0.00000000	      0.00000000	      1.19758971	    -12.18233637	     -8.28399558	     11.27622920	      0.19680733	    -27.49053055	      0.00000000	      0.00000000	    -10.62107158	     -5.44483252	     -2.57698755	    -47.80578337	    -41.43137140	      6.06448970	    113.03422552	     87.50028752	      0.00000000	      0.00000000	    -19.31564333	    -61.95242093	     51.90208882	    103.06584771	     88.22621423	      0.00000000	      0.00000000
      4.11000000	     -1.25977224	     -0.40739165	     -1.99845800	     -0.27049392	      1.35252745	     -0.81921245	     -0.85087041	     -9.20445684	     -5.43419888	     10.23836284	      0.17869314	    -14.39373475	      0.00000000	      0.00000000	      1.54633682	    -12.44652683	     -8.39400208	     11.41830608	      0.19928704	    -27.17075885	      0.00000000	      0.00000000	    -10.74537395	     -5.38728280	     -2.58483907	    -47.81983338	    -41.42209873	      6.14369955	    112.99661094	     87.10018374	      0.00000000	      0.00000000	    -19.25109814	    -61.97143214	     52.02306496	    103.06459072	     88.27980555	      0.00000000	      0.00000000
      4.11500000	     -1.37987345	     -0.56500450	     -1.93119465	     -0.27286564	      1.34320763	     -0.81926487	     -0.30712704	     -9.14002801	     -5.66503472	     10.51844782	      0.18358155	    -13.55799131	      0.00000000	      0.00000000	      2.07668587	    -12.76289702	     -8.47038455	     11.87737026	      0.20729922	    -26.78435018	      0.00000000	      0.00000000	    -11.02940676	     -5.19792895	     -2.13482097	    -48.53897246	    -40.82084757	      5.29373509	    113.05451092	     87.56362824	      0.00000000	      0.00000000	    -17.01450682	    -62.27743776	     54.24225607	    103.05704481	     88.19541510	      0.00000000	      0.00000000
